<svg width="260" height="26" xmlns="http://www.w3.org/2000/svg">
 <g id="Layer_1">
  <title>Layer 1</title>
  <path fill="#fff" stroke="#000" opacity="NaN" d="m605.42992,400.71578c0.35088,15.78947 0.70175,20.35087 0.61406,20.24561c0.0877,0.10526 -0.96494,-36.03508 -0.61406,-20.24561z" id="svg_2"/>
  <path fill="#000000" stroke="#000" stroke-width="0" opacity="NaN" d="m4.47366,3.26316" id="svg_3"/>
  <path fill="#ffffff" stroke="#000" stroke-width="0" opacity="NaN" d="m10.87301,10.30158l0.02646,-4.26984" id="svg_18"/>
  <path fill="none" stroke="#000" stroke-width="0" opacity="NaN" d="m3.35979,25.75132l2.03704,-0.14285c0.07936,0.03703 2.83069,-0.17461 2.93651,-0.17461c0.10582,0 1.37566,-0.5291 1.69312,-0.63492c0.31746,-0.10582 1.37566,-0.63492 1.48148,-1.0582c0.10582,-0.42328 0.21164,-0.21164 0.21164,-0.74074c0,-0.5291 -0.10582,-0.63492 -0.10582,-1.37566c0,-0.74074 -0.31746,-1.26984 -0.5291,-1.90476c-0.21164,-0.63492 -0.42328,-1.26984 -0.74074,-1.48148c-0.31746,-0.21164 -0.21164,-0.31746 -0.95238,-0.63492c-0.74074,-0.31746 -1.48148,-0.5291 -1.79894,-0.74074" id="svg_23"/>
  <path fill="none" stroke="#000" stroke-width="0" opacity="NaN" d="m0.291,0.14285l3.9418,0.06879l2.32804,-0.10582l2.1164,0c0.07936,0.03703 1.56084,0.14285 1.56084,0.24867c0,0.10582 0.95238,0.31746 0.87302,0.28043c0.07936,0.03703 1.03174,0.56613 0.95238,0.5291c0.07936,0.03703 0.71428,1.20106 0.63492,1.16402c0.07936,0.03703 0.60846,1.20106 0.5291,1.16402c0.07936,0.03703 0.39682,1.30688 0.31746,1.26984c0.07936,0.03703 0.18518,1.09524 0.18518,1.20106c0,0.10582 -0.31746,1.16402 -0.39682,1.12699c0.07936,0.03703 -0.2381,1.62434 -0.31746,1.5873c0.07936,0.03703 -0.97884,1.09524 -1.0582,1.0582c0.07936,0.03703 -0.7672,0.67195 -0.7672,0.77777c0,0.10582 -1.0582,0.42328 -1.16402,0.42328c-0.10582,0 -1.16402,0.31746 -1.24338,0.28043c0.07936,0.03703 -1.08466,0.35449 -1.16402,0.31746c0.07936,0.03703 -1.2963,-0.06879 -1.37566,-0.10582c0.07936,0.03703 -0.97884,-0.06879 -1.08466,-0.06879" id="svg_22"/>
  <text fill="#ffffff" stroke="#000" stroke-width="0" x="-4.55247" y="17.35913" id="svg_24" font-size="30" font-family="'JetBrains Mono'" text-anchor="start" xml:space="preserve" transform="matrix(1.28367, 0, 0, 1.15253, 1.06352, 6.08939)" font-weight="bold">B</text>
  <path fill="#ffffff" stroke="#000" stroke-width="0" opacity="NaN" d="m1084.71031,574.1897l19.1799,-25.22222l-19.1799,25.22222z" id="svg_27"/>
  <path fill="#ffffff" stroke="#000" stroke-width="0" opacity="NaN" d="m118.20873,25.90824c0.57319,-11.51146 4.95591,-19.53086 21.40212,-26.80952c-1.62257,-0.03527 -4.09171,0.14109 -5.71429,0.10582c-9.41799,3.49206 -18.73016,12.06349 -18.4127,26.66667l2.72487,0.03703z" id="svg_32"/>
  <path fill="#ffffff" stroke="#0f0f00" stroke-opacity="0" opacity="undefined" d="m74.09668,-0.65261l3.1746,0l0,26.98413l-3.1746,0l0,-26.98413z" id="svg_34"/>
  <path fill="#ffffff" stroke="#000" stroke-width="0" opacity="NaN" d="m28.90064,25.82978c0.57319,-11.51146 4.95591,-19.53086 21.40212,-26.80952c-1.62257,-0.03527 -4.09171,0.14109 -5.71429,0.10582c-9.41799,3.49206 -18.73016,12.06349 -18.4127,26.66667l2.72487,0.03703z" id="svg_36"/>
  <path fill="#ffffff" stroke="#0f0f00" stroke-opacity="0" opacity="undefined" d="m25.62021,-0.94271l3.1746,0l0,26.98413l-3.1746,0l0,-26.98413z" id="svg_37"/>
  <path fill="#ffffff" stroke="#000" stroke-width="0" opacity="NaN" d="m37.05113,32.07082c0.57319,-11.51146 4.00353,-19.10758 20.44974,-26.38624c-1.62257,-0.03527 -3.13933,-0.28219 -4.7619,-0.31746c-9.41799,3.49206 -18.73016,12.06349 -18.4127,26.66667l2.72487,0.03703l-0.00001,0z" id="svg_38" transform="rotate(-90, 45.9097, 18.719)"/>
  <path fill="#ffffff" stroke="#000" stroke-width="0" opacity="NaN" d="m56.53054,25.90824c0.57319,-11.51146 4.95591,-19.53086 21.40212,-26.80952c-1.62257,-0.03527 -4.09171,0.14109 -5.71429,0.10582c-9.41799,3.49206 -18.73016,12.06349 -18.4127,26.66667l2.72487,0.03703z" id="svg_39"/>
  <path fill="#ffffff" stroke="#0f0f00" stroke-opacity="0" opacity="undefined" d="m135.43004,-0.97007l3.1746,0l0,26.98413l-3.1746,0l0,-26.98413z" id="svg_40"/>
  <path fill="#ffffff" stroke="#000" stroke-width="0" opacity="NaN" d="m181.62029,28.92954c0.57319,-11.51146 4.95591,-19.53086 21.40212,-26.80952c-1.62257,-0.03527 -4.09171,0.14109 -5.71429,0.10582c-9.41799,3.49206 -18.73016,12.06349 -18.4127,26.66667l2.72487,0.03703z" id="svg_41" transform="rotate(-10, 190.955, 15.5224)"/>
  <path fill="#ffffff" stroke="#000" stroke-width="0" opacity="NaN" d="m171.11674,12.52742c0.57319,-11.51146 4.95591,-19.53086 21.40212,-26.80952c-1.62257,-0.03527 -4.09171,0.14109 -5.71429,0.10582c-9.41799,3.49206 -18.73016,12.06349 -18.4127,26.66667l2.72487,0.03703z" id="svg_42" transform="rotate(-53, 180.451, -0.879688)"/>
  <path fill="#ffffff" stroke="#000" stroke-width="0" opacity="undefined" d="m209.43189,23.24958l13.30688,0.10582l0,3l-15.84656,-0.10582l2.53968,-3z" id="svg_45"/>
  <rect fill="#ffffff" stroke="#000" stroke-width="0" x="208.4266" y="11.91624" width="15" height="3" id="svg_50"/>
  <rect fill="#ffffff" stroke="#000" stroke-width="0" x="51.93121" y="-25.67725" width="0.10582" height="0" id="svg_51"/>
  <path fill="#ffffff" stroke="#000" stroke-width="0" opacity="NaN" d="m220.73347,11.9165l0.09014,14.77752c1.10752,-0.64885 3.37906,0.64885 3.32256,-1.94654l0.07585,-11.03042c0.31863,-2.65487 -2.00824,-1.5248 -3.48855,-1.80056z" id="svg_53"/>
  <path fill="#ffffff" stroke="#000" stroke-width="0" opacity="NaN" d="m206.87147,0.06437l0.09014,14.43298c1.10752,-0.63372 3.37906,0.63372 3.32256,-1.90116l0.07585,-10.77324c0.31863,-2.59297 -2.00824,-1.48925 -3.48855,-1.75858z" id="svg_54" transform="rotate(-180, 208.631, 7.27498)"/>
  <path fill="#ffffff" stroke="#000" stroke-width="0" opacity="undefined" d="m208.47951,0.30155l15.95238,-0.01493l-0.10582,3.31746l-13.00543,0l-2.84113,-3.30253z" id="svg_55" transform="rotate(180, 216.455, 1.94535)"/>
  <rect id="svg_7" height="22.35294" width="4.47059" y="3.11765" x="94.94115" stroke-width="0" stroke="#000" fill="#ffffff"/>
  <rect id="svg_9" height="4" width="30.58823" y="-0.64706" x="82.47056" stroke-width="0" stroke="#000" fill="#ffffff"/>
  <rect id="svg_10" height="27.52941" width="3.76471" y="0.05882" x="147.41173" stroke-width="0" stroke="#000" fill="#ffffff"/>
  <rect id="svg_11" height="0.23529" width="0" y="68.99999" x="164.35291" stroke-width="0" stroke="#000" fill="#ffffff"/>
  <rect id="svg_12" height="6.82353" width="16.47059" y="22.41176" x="151.17644" stroke-width="0" stroke="#000" fill="#ffffff"/>
  <rect id="svg_13" height="21.64706" width="4.23529" y="4.29412" x="242.47054" stroke-width="0" stroke="#000" fill="#ffffff"/>
  <rect id="svg_14" height="3.52941" width="30.58823" y="0.76471" x="229.52937" stroke-width="0" stroke="#000" fill="#ffffff"/>
 </g>

</svg>