<svg width="260" height="26" xmlns="http://www.w3.org/2000/svg">
 <g id="Layer_1">
  <title>Layer 1</title>
  <path id="svg_2" d="m605.42992,400.71578c0.35088,15.78947 0.70175,20.35087 0.61406,20.24561c0.0877,0.10526 -0.96494,-36.03508 -0.61406,-20.24561z" opacity="NaN" stroke="#000" fill="#fff"/>
  <path id="svg_3" d="m4.47366,3.26316" opacity="NaN" stroke-width="0" stroke="#000" fill="#000000"/>
  <path id="svg_18" d="m10.87301,10.30158l0.02646,-4.26984" opacity="NaN" stroke-width="0" stroke="#000" fill="#ffffff"/>
  <path id="svg_23" d="m3.35979,25.75132l2.03704,-0.14285c0.07936,0.03703 2.83069,-0.17461 2.93651,-0.17461c0.10582,0 1.37566,-0.5291 1.69312,-0.63492c0.31746,-0.10582 1.37566,-0.63492 1.48148,-1.0582c0.10582,-0.42328 0.21164,-0.21164 0.21164,-0.74074c0,-0.5291 -0.10582,-0.63492 -0.10582,-1.37566c0,-0.74074 -0.31746,-1.26984 -0.5291,-1.90476c-0.21164,-0.63492 -0.42328,-1.26984 -0.74074,-1.48148c-0.31746,-0.21164 -0.21164,-0.31746 -0.95238,-0.63492c-0.74074,-0.31746 -1.48148,-0.5291 -1.79894,-0.74074" opacity="NaN" stroke-width="0" stroke="#000" fill="none"/>
  <path id="svg_22" d="m0.291,0.14285l3.9418,0.06879l2.32804,-0.10582l2.1164,0c0.07936,0.03703 1.56084,0.14285 1.56084,0.24867c0,0.10582 0.95238,0.31746 0.87302,0.28043c0.07936,0.03703 1.03174,0.56613 0.95238,0.5291c0.07936,0.03703 0.71428,1.20106 0.63492,1.16402c0.07936,0.03703 0.60846,1.20106 0.5291,1.16402c0.07936,0.03703 0.39682,1.30688 0.31746,1.26984c0.07936,0.03703 0.18518,1.09524 0.18518,1.20106c0,0.10582 -0.31746,1.16402 -0.39682,1.12699c0.07936,0.03703 -0.2381,1.62434 -0.31746,1.5873c0.07936,0.03703 -0.97884,1.09524 -1.0582,1.0582c0.07936,0.03703 -0.7672,0.67195 -0.7672,0.77777c0,0.10582 -1.0582,0.42328 -1.16402,0.42328c-0.10582,0 -1.16402,0.31746 -1.24338,0.28043c0.07936,0.03703 -1.08466,0.35449 -1.16402,0.31746c0.07936,0.03703 -1.2963,-0.06879 -1.37566,-0.10582c0.07936,0.03703 -0.97884,-0.06879 -1.08466,-0.06879" opacity="NaN" stroke-width="0" stroke="#000" fill="none"/>
  <path id="svg_27" d="m1084.71031,574.1897l19.1799,-25.22222l-19.1799,25.22222z" opacity="NaN" stroke-width="0" stroke="#000" fill="#ffffff"/>
  <path id="svg_36" d="m28.90064,25.82978c0.57319,-11.51146 4.95591,-19.53086 21.40212,-26.80952c-1.62257,-0.03527 -4.09171,0.14109 -5.71429,0.10582c-9.41799,3.49206 -18.73016,12.06349 -18.4127,26.66667l2.72487,0.03703z" opacity="NaN" stroke-width="0" stroke="#000" fill="#ffffff"/>
  <path id="svg_37" d="m25.62021,-0.94271l3.1746,0l0,26.98413l-3.1746,0l0,-26.98413z" opacity="undefined" stroke-opacity="0" stroke="#0f0f00" fill="#ffffff"/>
  <path transform="rotate(-90, 45.9097, 18.719)" id="svg_38" d="m37.05113,32.07082c0.57319,-11.51146 4.00353,-19.10758 20.44974,-26.38624c-1.62257,-0.03527 -3.13933,-0.28219 -4.7619,-0.31746c-9.41799,3.49206 -18.73016,12.06349 -18.4127,26.66667l2.72487,0.03703l-0.00001,0z" opacity="NaN" stroke-width="0" stroke="#000" fill="#ffffff"/>
  <path id="svg_39" d="m57.11025,25.7731c-0.4413,-8.0332 3.36171,-21.55985 16.61951,-22.75155c-0.46315,-0.90484 1.27061,-3.04732 -0.35197,-3.08259c-10.72234,1.75293 -18.29538,6.70117 -19.13734,25.94203l2.8698,-0.1079z" opacity="NaN" stroke-width="0" stroke="#000" fill="#ffffff"/>
  <path transform="rotate(-10, 192.507, 15.0637)" id="svg_41" d="m182.89504,28.88769c0.57319,-11.51146 5.50992,-20.16899 21.95613,-27.44765c-1.62257,-0.03527 -2.9668,-0.39637 -4.95033,-0.0538c-9.41799,3.49206 -20.04813,12.86124 -19.73067,27.46442l2.72487,0.03703z" opacity="NaN" stroke-width="0" stroke="#000" fill="#ffffff"/>
  <path transform="rotate(-53, 182.073, -0.879686)" id="svg_42" d="m172.73836,12.52742c0.57319,-11.51146 4.95591,-19.53086 21.40212,-26.80952c-1.62257,-0.03527 -4.09171,0.14109 -5.71429,0.10582c-9.41799,3.49206 -18.73016,12.06349 -18.4127,26.66667l2.72487,0.03703z" opacity="NaN" stroke-width="0" stroke="#000" fill="#ffffff"/>
  <path id="svg_45" d="m208.29711,23.24958l14.44166,0.10582l0,3l-17.19791,-0.10582l2.75626,-3z" opacity="undefined" stroke-width="0" stroke="#000" fill="#ffffff"/>
  <rect id="svg_50" height="2.72973" width="15" y="12" x="208.4266" stroke-width="0" stroke="#000" fill="#ffffff"/>
  <rect id="svg_51" height="0" width="0.10582" y="-25.67725" x="51.93121" stroke-width="0" stroke="#000" fill="#ffffff"/>
  <path id="svg_53" d="m221.00374,12.05152l0.08322,14.6425c1.02244,-0.64292 3.11947,0.64292 3.06731,-1.92875l0.07002,-10.92963c0.29415,-2.63061 -1.85396,-1.51087 -3.22055,-1.78411z" opacity="NaN" stroke-width="0" stroke="#000" fill="#ffffff"/>
  <path transform="rotate(-180, 208.904, 7.39249)" id="svg_54" d="m207.40769,0.10965l-0.04494,14.57767c0.9084,-0.64644 3.12816,1.08122 3.08182,-1.50453l-0.17553,-11.27928c0.26134,-2.645 -1.64719,-1.51913 -2.86136,-1.79387z" opacity="NaN" stroke-width="0" stroke="#000" fill="#ffffff"/>
  <path transform="rotate(180, 216.32, 1.33724)" id="svg_55" d="m208.47936,0.02824l15.68211,-0.01189l-0.10313,2.64178l-12.81005,-0.10761l-2.76893,-2.52228z" opacity="undefined" stroke-width="0" stroke="#000" fill="#ffffff"/>
  <rect fill="#ffffff" stroke="#000" stroke-width="0" x="96.882" y="1.66837" width="3.4561" height="23.80222" id="svg_7"/>
  <rect fill="#ffffff" stroke="#000" stroke-width="0" x="83.68678" y="0.07758" width="30.58823" height="2.84058" id="svg_9"/>
  <rect fill="#ffffff" stroke="#000" stroke-width="0" x="150.1536" y="0.05882" width="3.04007" height="27.52941" id="svg_10"/>
  <rect fill="#ffffff" stroke="#000" stroke-width="0" x="164.35291" y="68.99999" width="0" height="0.23529" id="svg_11"/>
  <rect fill="#ffffff" stroke="#000" stroke-width="0" x="153.04875" y="23.1364" width="16.47059" height="3" id="svg_12"/>
  <path id="svg_1" d="m3.05506,23.09486l13.30688,0.10582l0,3l-15.84656,-0.10582l2.53968,-3z" opacity="undefined" stroke-width="0" stroke="#000" fill="#ffffff"/>
  <rect id="svg_4" height="3" width="13.24324" y="11.1916" x="2.04977" stroke-width="0" stroke="#000" fill="#ffffff"/>
  <path id="svg_5" d="m14.2215,12.27219l0.22528,13.98705c1.10752,-0.60821 3.37906,0.60821 3.32256,-1.82462l0.07585,-10.33952c0.31863,-2.48858 -2.14338,-1.56443 -3.62369,-1.82291z" opacity="NaN" stroke-width="0" stroke="#000" fill="#ffffff"/>
  <path transform="rotate(-180, 0.174841, 12.8138)" id="svg_6" d="m-3.61222,-0.37795l-0.10657,26.49746c2.15426,-1.17501 7.4184,1.9653 7.3085,-2.73474l0.42944,-20.7326c0.61977,-4.80775 -4.75198,-2.53074 -7.63137,-3.03012z" opacity="NaN" stroke-width="0" stroke="#000" fill="#ffffff"/>
  <path transform="rotate(180, 8.72752, 1.22071)" id="svg_8" d="m2.10268,-0.42309l13.24968,-0.01493l-0.10582,3.31746l-13.00543,0l-0.13843,-3.30253z" opacity="undefined" stroke-width="0" stroke="#000" fill="#ffffff"/>
  <path id="svg_15" d="m14.2313,-0.11397l0.09014,12.95174c1.10752,-0.56868 3.37906,0.56868 3.32256,-1.70604l0.07585,-9.6676c0.31863,-2.32686 -2.00824,-1.33641 -3.48855,-1.5781z" opacity="NaN" stroke-width="0" stroke="#000" fill="#ffffff"/>
  <rect fill="#ffffff" stroke="#000" stroke-width="0" x="242.33246" y="2.68287" width="3.4561" height="23.80222" id="svg_16"/>
  <rect fill="#ffffff" stroke="#000" stroke-width="0" x="229.85507" y="0.07758" width="30.58823" height="2.84058" id="svg_19"/>
  <rect fill="#ffffff" stroke="#000" stroke-width="0" x="73.6368" y="-0.21568" width="3.4561" height="26.26598" id="svg_20"/>
  <rect fill="#ffffff" stroke="#000" stroke-width="0" x="138.43704" y="0.36403" width="3.4561" height="26.26598" id="svg_24"/>
  <path id="svg_25" d="m122.05542,26.1981c-0.4413,-8.0332 3.36171,-21.55985 16.61951,-22.75155c-0.46315,-0.90484 1.27061,-3.04732 -0.35197,-3.08259c-10.72234,1.75293 -18.29538,6.70117 -19.13734,25.94203l2.8698,-0.1079z" opacity="NaN" stroke-width="0" stroke="#000" fill="#ffffff"/>
 </g>

</svg>